<svg width="45" height="48" viewBox="0 0 45 48" fill="none" xmlns="http://www.w3.org/2000/svg">
<g id="logo">
<g id="Logo">
<path d="M12.3154 12.4919C11.9155 12.3963 11.6238 12.0088 11.8325 11.6555C11.8768 11.5802 11.921 11.5048 11.9653 11.4295C12.3298 10.8095 12.6943 10.1893 13.082 9.58376C13.8926 8.31784 14.7968 7.11885 15.7783 5.97923C16.5711 5.05852 17.4086 4.18033 18.2998 3.35225C19.3252 2.39954 20.4076 1.51799 21.5512 0.710524C21.5929 0.681119 21.6346 0.651935 21.6766 0.622905C22.1186 0.316961 22.7115 0.311578 23.1541 0.616643C24.2779 1.39127 25.3316 2.25262 26.3325 3.1788C27.2714 4.0473 28.1731 4.95159 29.003 5.92577C30.5055 7.68804 31.8471 9.56271 32.9679 11.5902C33.1934 11.9981 32.8844 12.4234 32.4296 12.5291C32.027 12.6226 31.6267 12.7272 31.2303 12.8389C29.456 13.339 27.729 13.9705 26.0459 14.722C25.5575 14.9401 24.8014 15.3258 24.0706 15.6986C23.6807 15.8975 23.298 16.0927 22.967 16.2568C22.6112 16.4332 22.1938 16.4202 21.8412 16.2375C21.1251 15.8664 20.3547 15.4809 19.7959 15.2069C18.4518 14.5481 17.068 13.9819 15.6529 13.4901C14.644 13.1395 13.622 12.8313 12.5889 12.5606C12.4832 12.533 12.3933 12.5105 12.3154 12.4919Z" fill="#7839EE"/>
<path d="M36.9815 14.3859C38.049 14.3028 39.0646 14.847 39.5838 15.7809C41.0152 18.3559 41.8558 21.1125 42.0461 24.0862C42.0908 24.7844 41.5201 25.3511 40.8194 25.3836C38.7244 25.4807 36.6749 25.797 34.6705 26.4189C32.2642 27.1657 30.0188 28.2439 27.9334 29.6538C26.0992 30.8938 24.4605 32.3455 22.9849 34.0401C22.6907 34.3781 22.1358 34.3368 21.8531 33.9892C21.3633 33.3873 20.7545 32.831 20.1941 32.319C20.088 32.222 19.9836 32.1266 19.8821 32.0328C18.2699 30.5425 16.5041 29.269 14.5385 28.2776C14.0315 28.0218 13.9088 27.3934 14.2688 26.955C19.5715 20.4992 28.4728 15.0483 36.9815 14.3859Z" fill="#7839EE"/>
<path d="M24.5484 45.1018C24.8877 46.4581 23.897 47.7495 22.4953 47.7535C18.6129 47.7644 13.9649 46.6979 9.98219 44.0288C5.07721 40.7418 1.87285 35.9488 0.594299 30.8064C0.253202 29.4345 1.27673 28.1364 2.69406 28.135C3.46284 28.1342 4.23136 28.1742 4.99912 28.2589C8.86476 28.6849 12.4222 29.9576 15.6095 32.1981C18.627 34.319 21.0324 36.9831 22.7223 40.2693C23.5192 41.8196 24.1296 43.4281 24.5484 45.1018Z" fill="#7839EE"/>
<path d="M30.3299 46.3232C33.1898 45.2506 36.4925 43.2924 39.1858 40.2649C41.4369 37.734 43.7701 34.0361 44.4775 30.4349C44.7138 29.2319 43.8004 28.2049 42.5719 28.1648C40.7359 28.1046 38.9211 28.2663 37.132 28.6982C34.6059 29.3082 32.2182 30.2495 30.0238 31.6498C28.7559 32.4588 27.5244 33.3967 26.4157 34.4537C24.8602 35.9369 24.858 38.2181 25.7496 40.1715C26.387 41.5682 26.8684 43.0038 27.2363 44.4741C27.5884 45.8812 28.9687 46.8337 30.3299 46.3232Z" fill="#7839EE"/>
<path d="M18.3701 19.2784C19.0247 18.7792 18.9706 17.9038 18.2226 17.559C15.8805 16.4787 13.4561 15.6325 10.9363 15.0747C10.1904 14.9097 9.43715 14.7774 8.68404 14.6451C8.44742 14.6036 8.21081 14.562 7.97444 14.5194C7.94974 14.515 7.92389 14.5104 7.89702 14.5059C6.77556 14.3147 5.75955 14.8184 5.23312 15.8242C4.66461 16.9105 4.04383 18.3064 3.81203 18.9756C3.37932 20.2251 3.07833 21.5054 2.91073 22.8163C2.90061 22.8956 2.89008 22.976 2.87944 23.0572L2.8758 23.085C2.70521 24.3872 3.7629 25.3218 5.07468 25.4383C6.14779 25.533 7.21119 25.6913 8.25812 25.9392C8.50666 25.9982 8.84667 26.0873 9.20897 26.1822L9.27309 26.199C10.2679 26.4597 11.293 26.1273 11.9625 25.3486C12.8781 24.2835 13.828 23.2504 14.8416 22.2762C15.6065 21.5407 16.39 20.8259 17.2208 20.1658C17.5728 19.8864 17.9299 19.614 18.2871 19.3417C18.3148 19.3206 18.3424 19.2995 18.3701 19.2784Z" fill="#7839EE"/>
</g>
</g>
</svg>
